<svg xmlns="http://www.w3.org/2000/svg" width="20" height="18.792" viewBox="0 0 20 18.792">
  <g id="coffee-cup_1_" data-name="coffee-cup (1)" transform="translate(0 -15.457)">
    <g id="Group_43213" data-name="Group 43213" transform="translate(4.364 15.457)">
      <g id="Group_43212" data-name="Group 43212" transform="translate(0 0)">
        <path id="Path_78724" data-name="Path 78724" d="M112.939,17.5c0-.129.025-.163.16-.32a1.579,1.579,0,0,0,.453-1.113.61.61,0,0,0-1.219,0c0,.129-.025.163-.16.32a1.593,1.593,0,0,0,0,2.226c.135.157.16.191.16.32s-.025.163-.16.32a2.41,2.41,0,0,0-.23.3.61.61,0,1,0,1.036.642,1.389,1.389,0,0,1,.119-.151,1.593,1.593,0,0,0,0-2.226C112.964,17.662,112.939,17.629,112.939,17.5Z" transform="translate(-111.72 -15.457)" fill="#b5151b"/>
      </g>
    </g>
    <g id="Group_43215" data-name="Group 43215" transform="translate(7.038 15.457)">
      <g id="Group_43214" data-name="Group 43214" transform="translate(0 0)">
        <path id="Path_78725" data-name="Path 78725" d="M181.39,17.5c0-.129.025-.163.16-.32A1.579,1.579,0,0,0,182,16.067a.61.61,0,0,0-1.219,0c0,.129-.025.163-.16.32a1.593,1.593,0,0,0,0,2.226c.135.157.16.191.16.32s-.025.163-.16.32a2.411,2.411,0,0,0-.23.3.61.61,0,1,0,1.036.642,1.384,1.384,0,0,1,.119-.151,1.593,1.593,0,0,0,0-2.226C181.415,17.662,181.39,17.629,181.39,17.5Z" transform="translate(-180.171 -15.457)" fill="#b5151b"/>
      </g>
    </g>
    <g id="Group_43217" data-name="Group 43217" transform="translate(9.712 15.457)">
      <g id="Group_43216" data-name="Group 43216" transform="translate(0 0)">
        <path id="Path_78726" data-name="Path 78726" d="M249.841,17.5c0-.129.025-.163.16-.32a1.579,1.579,0,0,0,.453-1.113.61.61,0,0,0-1.219,0c0,.129-.025.163-.16.32a1.593,1.593,0,0,0,0,2.226c.135.157.16.191.16.32s-.025.163-.16.32a2.4,2.4,0,0,0-.23.3.61.61,0,1,0,1.036.642,1.388,1.388,0,0,1,.119-.151,1.594,1.594,0,0,0,0-2.226C249.866,17.662,249.841,17.629,249.841,17.5Z" transform="translate(-248.622 -15.457)" fill="#b5151b"/>
      </g>
    </g>
    <g id="Group_43219" data-name="Group 43219" transform="translate(0 22.248)">
      <g id="Group_43218" data-name="Group 43218" transform="translate(0 0)">
        <path id="Path_78727" data-name="Path 78727" d="M18.724,190.84a3.3,3.3,0,0,0-2.9.179c-.045-.416-.107-.828-.189-1.233a.61.61,0,0,0-.6-.49H.871a.61.61,0,0,0-.6.49A14.16,14.16,0,0,0,0,192.566a13.549,13.549,0,0,0,.867,4.847,10.52,10.52,0,0,0,2.344,3.708.609.609,0,0,0,.43.177h8.628a.609.609,0,0,0,.43-.177,9.862,9.862,0,0,0,1.669-2.248,6.593,6.593,0,0,0,4.153-2.354,6.059,6.059,0,0,0,1.481-3.6A2.25,2.25,0,0,0,18.724,190.84Zm-6.713,9.239H3.9a11.1,11.1,0,0,1-2.678-7.513,13.033,13.033,0,0,1,.161-2.051H14.528a13.033,13.033,0,0,1,.161,2.051A11.1,11.1,0,0,1,12.011,200.079Zm3.005-2.6.025-.064a13.55,13.55,0,0,0,.867-4.847c0-.061,0-.121,0-.182a2.371,2.371,0,0,1,2.29-.446,1.018,1.018,0,0,1,.585.986A5.414,5.414,0,0,1,15.016,197.476Z" transform="translate(0 -189.296)" fill="#b5151b"/>
      </g>
    </g>
  </g>
</svg>
