<svg xmlns="http://www.w3.org/2000/svg" width="43.384" height="52" viewBox="0 0 43.384 52">
  <g id="user" transform="translate(0)">
    <path id="Path_78729" data-name="Path 78729" d="M112.084,12.524a12.12,12.12,0,0,1-3.669,8.856,12.119,12.119,0,0,1-8.856,3.669h-.006A12.121,12.121,0,0,1,90.7,21.38a12.118,12.118,0,0,1-3.669-8.856A12.117,12.117,0,0,1,90.7,3.669,12.116,12.116,0,0,1,99.554,0h.006a12.123,12.123,0,0,1,8.856,3.669A12.118,12.118,0,0,1,112.084,12.524Zm0,0" transform="translate(-78.196 0)" fill="#ffbb85"/>
    <path id="Path_78730" data-name="Path 78730" d="M43.385,265.258a8.633,8.633,0,0,1-2.565,6.533,9.231,9.231,0,0,1-6.609,2.41H9.173a9.226,9.226,0,0,1-6.608-2.41A8.632,8.632,0,0,1,0,265.258c0-1.044.035-2.077.1-3.071A30.743,30.743,0,0,1,.526,258.9a25.937,25.937,0,0,1,.807-3.3,16.381,16.381,0,0,1,1.358-3.082,11.663,11.663,0,0,1,2.047-2.669A9.031,9.031,0,0,1,7.681,248a10.172,10.172,0,0,1,3.755-.679,3.806,3.806,0,0,1,2.034.862c.62.4,1.334.864,2.122,1.368a12.113,12.113,0,0,0,2.743,1.209,10.934,10.934,0,0,0,3.023.536q.166.006.332.006a10.908,10.908,0,0,0,3.356-.542,12.113,12.113,0,0,0,2.743-1.209c.8-.509,1.511-.969,2.121-1.367a3.8,3.8,0,0,1,2.036-.863A10.177,10.177,0,0,1,35.7,248a9.039,9.039,0,0,1,2.942,1.849,11.622,11.622,0,0,1,2.048,2.669A16.325,16.325,0,0,1,42.05,255.6a25.916,25.916,0,0,1,.809,3.3,31.032,31.032,0,0,1,.421,3.285c.07.99.1,2.023.106,3.071Zm0,0" transform="translate(0 -222.202)" fill="#f7d550"/>
    <path id="Path_78731" data-name="Path 78731" d="M210.3,25.048h-.006V0h.006a12.123,12.123,0,0,1,8.856,3.669,12.118,12.118,0,0,1,3.669,8.855,12.12,12.12,0,0,1-3.669,8.856,12.119,12.119,0,0,1-8.856,3.669Zm0,0" transform="translate(-188.935)" fill="#f5a86c"/>
    <path id="Path_78732" data-name="Path 78732" d="M232.319,265.259a8.633,8.633,0,0,1-2.565,6.533,9.231,9.231,0,0,1-6.609,2.411H210.293V251.3q.166.006.332.006a10.908,10.908,0,0,0,3.356-.542,12.113,12.113,0,0,0,2.743-1.209c.8-.509,1.511-.969,2.121-1.367a3.8,3.8,0,0,1,2.036-.863,10.177,10.177,0,0,1,3.755.679,9.039,9.039,0,0,1,2.942,1.849,11.622,11.622,0,0,1,2.048,2.669,16.326,16.326,0,0,1,1.358,3.081,25.911,25.911,0,0,1,.809,3.3,31.028,31.028,0,0,1,.421,3.285c.07.99.1,2.023.106,3.071Zm0,0" transform="translate(-188.935 -222.202)" fill="#eac11e"/>
  </g>
</svg>
