<svg id="Group_43064" data-name="Group 43064" xmlns="http://www.w3.org/2000/svg" width="34.134" height="24" viewBox="0 0 34.134 24">
  <path id="Path_78335" data-name="Path 78335" d="M33.23,6.838H9.808a.909.909,0,0,0-.928.885v2.643a.863.863,0,0,1-.88.88H5.011a.916.916,0,0,0-.809.512L1.734,16.712a.92.92,0,0,1-.808.517H.9a.886.886,0,0,0-.9.882v7.1a.9.9,0,0,0,.9.9H3.18a5.18,5.18,0,0,1,10.151,0H23.478a5.18,5.18,0,0,1,10.132-.084.9.9,0,0,0,.524-.818V7.723A.889.889,0,0,0,33.23,6.838ZM7.683,16.05a.723.723,0,0,1-.715.738H4.255a.472.472,0,0,1-.418-.682L5.1,13.594a.725.725,0,0,1,.654-.4H6.969a.7.7,0,0,1,.715.714V16.05Z" transform="translate(0 -6.838)" fill="#2e7cca"/>
  <path id="Path_78336" data-name="Path 78336" d="M9.849,29.256a3.694,3.694,0,1,0,3.694,3.694A3.694,3.694,0,0,0,9.849,29.256Zm0,5.036a1.341,1.341,0,1,1,1.341-1.341A1.341,1.341,0,0,1,9.849,34.292Z" transform="translate(-1.594 -12.645)" fill="#2e7cca"/>
  <path id="Path_78337" data-name="Path 78337" d="M37.242,29.256a3.694,3.694,0,1,0,3.7,3.694A3.694,3.694,0,0,0,37.242,29.256Zm0,5.036a1.341,1.341,0,1,1,1.341-1.341A1.341,1.341,0,0,1,37.242,34.292Z" transform="translate(-8.69 -12.645)" fill="#2e7cca"/>
</svg>
