<svg id="Icon_awesome-store" data-name="Icon awesome-store" xmlns="http://www.w3.org/2000/svg" width="28.872" height="24" viewBox="0 0 28.872 24">
  <path id="Icon_awesome-store-2" data-name="Icon awesome-store" d="M28.22,5.559,25.178.7a1.5,1.5,0,0,0-1.27-.7H4.97A1.5,1.5,0,0,0,3.7.7L.658,5.559a4.182,4.182,0,0,0,2.756,6.394A4.871,4.871,0,0,0,4.056,12a4.629,4.629,0,0,0,3.459-1.552,4.632,4.632,0,0,0,6.919,0,4.632,4.632,0,0,0,6.919,0A4.644,4.644,0,0,0,24.812,12a4.819,4.819,0,0,0,.642-.042A4.178,4.178,0,0,0,28.22,5.559Zm-3.4,7.941a5.947,5.947,0,0,1-1.383-.178V18h-18V13.322a6.21,6.21,0,0,1-1.383.178,6.325,6.325,0,0,1-.844-.056,5.9,5.9,0,0,1-.769-.169V22.5a1.5,1.5,0,0,0,1.5,1.5h21a1.5,1.5,0,0,0,1.5-1.5V13.275a4.786,4.786,0,0,1-.769.169A6.519,6.519,0,0,1,24.822,13.5Z" transform="translate(-0.004)" fill="#b251e9"/>
</svg>
